<svg id="Livello_1" data-name="Livello 1" xmlns="http://www.w3.org/2000/svg" xmlns:xlink="http://www.w3.org/1999/xlink" viewBox="0 0 512 512"><defs><style>.cls-1{fill:url(#Sfumatura_senza_nome_26);}.cls-2{fill:#f4f4f5;}.cls-3{fill:#27272a;}</style><linearGradient id="Sfumatura_senza_nome_26" x1="74.98" y1="437.02" x2="437.02" y2="74.98" gradientUnits="userSpaceOnUse"><stop offset="0" stop-color="#5b06d6"/><stop offset="1" stop-color="#f97316"/></linearGradient></defs><title>hobbies-tracker-hub</title><circle class="cls-1" cx="256" cy="256" r="256"/><rect class="cls-2" x="111.7" y="108.61" width="276.9" height="101.52"/><path class="cls-3" d="M118.63,89.49c7.21-.36,14.46-.19,21.68-.19h34.92q51.95,0,103.9.33,34.61.24,69.24,0c14.51-.1,29.17-.68,43.66.13a21.09,21.09,0,0,1,8.78,2.46,25.37,25.37,0,0,1,12.67,14.64,25.43,25.43,0,0,1,.94,6.61c.28,6.7.08,13.47.07,20.18v64.21c0,5.26.22,10.63-.23,15.87a20.23,20.23,0,0,1-2.51,8.15,22.14,22.14,0,0,1-13,10.64l-.49.13c-3.42.91-7.07.81-10.59.94-43.69-.17-87.38,0-131.07.09-14,0-28-.53-42.09-.37-23.19.25-46.36,0-69.54.09-7.73,0-15.46,0-23.18,0-3.5,0-7.41.28-10.86-.31l-.48-.09a21.18,21.18,0,0,1-5.93-2A23.39,23.39,0,0,1,93,217.21c-1.21-4-.62-9.27-.61-13.46V183.61c-.09-15.9-.22-31.78-.19-47.68,0-7.86-.28-15.9.22-23.74a20.19,20.19,0,0,1,2.22-8.08A28.23,28.23,0,0,1,111.1,90.65,34.92,34.92,0,0,1,118.63,89.49Zm40.87,19.45c-14.38,1.61-27.45,8.08-36.59,19.54a50.24,50.24,0,0,0,7.31,70.67l.41.33c10.92,8.51,23.69,11.3,37.3,10.54a61.86,61.86,0,0,0,8-1.24,52.1,52.1,0,0,0,27.5-18.16c8.51-10.89,13-24.76,11.35-38.59A50.22,50.22,0,0,0,196,119.2c-7.5-5.77-16.22-8.83-25.51-10.15A40.05,40.05,0,0,0,159.5,108.94Zm114.1,63.79c-6.05.06-12.1.13-18.15.17-3.3,0-8.48-.74-11.4.85a12.15,12.15,0,0,0-5.41,7,13.37,13.37,0,0,0,.24,7.52l.15.44a12.2,12.2,0,0,0,6,7c3.6,1.67,10.25.84,14.25.84H367.46c5.9,0,13.06.87,17.7-3.55a11.85,11.85,0,0,0,3.41-8.62,11.62,11.62,0,0,0-3.62-8.5,11.15,11.15,0,0,0-6-2.88c-4.49-.63-9.23-.26-13.76-.21-6.62.07-13.23.06-19.85.06-23.92,0-47.83-.33-71.74-.12Z"/><path class="cls-3" d="M158.12,120.55c9.27-.84,18.31.59,26.36,5.43,9.25,5.56,15,14.48,17.49,24.81l.47,2.18a39.94,39.94,0,0,1-7.17,29.73c-7,9.46-15.86,14.61-27.43,16.32-2.21.54-6.38.25-8.64-.1a46.26,46.26,0,0,1-21.45-8.78,38.52,38.52,0,0,1-6.51-54A39.79,39.79,0,0,1,158.12,120.55Z"/><rect class="cls-3" x="111.7" y="294.42" width="276.9" height="101.52"/><path class="cls-2" d="M118.63,274.3c7.21-.36,14.46-.2,21.68-.2h34.92q51.95.06,103.9.33,34.61.22,69.24,0c14.51-.09,29.17-.67,43.66.14a20.93,20.93,0,0,1,8.78,2.45,23.31,23.31,0,0,1,13.61,21.25c.28,6.7.08,13.48.07,20.19v64.21c0,5.26.22,10.62-.23,15.86a20.23,20.23,0,0,1-2.51,8.15,22.16,22.16,0,0,1-13,10.65l-.49.13c-3.42.9-7.07.81-10.59.93-43.69-.16-87.38,0-131.07.1-14,0-28-.53-42.09-.38-23.19.26-46.36,0-69.54.1-7.73,0-15.46.05-23.18,0-3.5,0-7.41.28-10.86-.31l-.48-.1a21.18,21.18,0,0,1-5.93-2A23.44,23.44,0,0,1,93,402c-1.21-4-.62-9.28-.61-13.46V368.39c-.09-15.89-.22-31.78-.19-47.67,0-7.86-.28-15.9.22-23.74a20.24,20.24,0,0,1,2.22-8.09,28.17,28.17,0,0,1,16.46-13.45A34.28,34.28,0,0,1,118.63,274.3Zm40.87,19.45c-14.38,1.61-27.45,8.08-36.59,19.54a50.23,50.23,0,0,0,7.3,70.66l.42.34c10.92,8.51,23.69,11.3,37.3,10.55a65.52,65.52,0,0,0,8-1.24,52.1,52.1,0,0,0,27.5-18.16c8.51-10.9,13-24.76,11.35-38.59A50.2,50.2,0,0,0,196,304c-7.5-5.77-16.22-8.84-25.51-10.16A39.66,39.66,0,0,0,159.5,293.75Zm114.1,63.79c-6.05,0-12.1.12-18.15.16-3.3,0-8.48-.74-11.4.85a12.14,12.14,0,0,0-5.41,7.05,13.37,13.37,0,0,0,.24,7.52l.15.44a12.2,12.2,0,0,0,6,7c3.6,1.67,10.25.83,14.25.84H367.46c5.9,0,13.06.86,17.7-3.55a11.89,11.89,0,0,0,3.41-8.63,11.6,11.6,0,0,0-3.62-8.49,11.23,11.23,0,0,0-6-2.89c-4.49-.62-9.23-.26-13.76-.21-6.62.08-13.23.07-19.85.07C321.42,357.63,297.51,357.33,273.6,357.54Z"/><path class="cls-2" d="M158.12,306.36c9.27-.84,18.31.59,26.36,5.42,9.25,5.57,15,14.48,17.49,24.82l.47,2.18a40,40,0,0,1-7.17,29.73c-7,9.46-15.86,14.61-27.43,16.32-2.21.54-6.38.24-8.64-.11a46.16,46.16,0,0,1-21.45-8.78,38.51,38.51,0,0,1-6.51-54C138.09,313.18,147.1,307.76,158.12,306.36Z"/></svg>